<svg xmlns="http://www.w3.org/2000/svg" width="64" height="64" viewBox="0 0 64 64">
  <path d="M4 4 L20 4 L20 20 Z" fill="#d81b60"/>
  <path d="m24 4 h16 v8 h-16 z" fill="#3949ab"/>
  <path d="M44 20 C44 4 60 4 60 20 S44 36 44 20" fill="#fdd835" stroke="#5d4037" stroke-width="1"/>
  <path d="M4 40 Q12 24 20 40 T36 40" fill="none" stroke="#43a047" stroke-width="2"/>
  <path d="M40 44 a10 6 30 1 1 16 8 A6 6 0 0 1 40 44z" fill="#00acc1"/>
  <path d="M4 60l8-8 8 8-.5-4.5e0 3.5,0.5z" fill="#6d4c41"/>
  <path d="M30 50a4 4 0 104 4" fill="none" stroke="red" stroke-width="1.5"/>
</svg>
